<?xml version="1.0" encoding="utf-8"?>
<!-- Generator: Adobe Illustrator 25.0.0, SVG Export Plug-In . SVG Version: 6.00 Build 0)  -->
<svg version="1.1" id="Capa_1" xmlns="http://www.w3.org/2000/svg" xmlns:xlink="http://www.w3.org/1999/xlink" x="0px" y="0px"
	 viewBox="0 0 365.3 254.2" style="enable-background:new 0 0 365.3 254.2;" xml:space="preserve">
<style type="text/css">
	.st0{stroke:#000000;stroke-miterlimit:10;}
</style>
<path class="st0" d="M273.7,18.8c-33.2-16.6-67,1.4-93.7,22.4c-20.7-19.8-46.9-34-76.7-30.2C75,14.6,49.4,35.1,43.4,63.2
	c-15,70.4,64.7,140.9,119.8,167.9c3.8,1.9,7.2,1.9,10,0.7c3.1,8.5,15.3,14.6,24.5,8.6c48.7-32,111.4-91,114.9-153.1
	C314.1,59.4,299.1,31.5,273.7,18.8z M256,133c-21.1,31-49.1,55.9-75.6,82.1c-0.9-3.4-3.1-6.5-6.8-8.6
	c-34.5-19.7-61.8-48.6-80.4-83.6c-10.9-20.5-26-51.1-3.4-69.1c25.2-20.2,57.9,2.4,74.7,22c5.8,6.7,17.1,10.3,24.6,3.6
	c21.8-19.2,72.3-55.7,86.6-7.5C282,93.1,267.4,116.3,256,133z"/>
</svg>
