<?xml version="1.0" encoding="utf-8"?>
<!-- Generator: Adobe Illustrator 25.0.0, SVG Export Plug-In . SVG Version: 6.00 Build 0)  -->
<svg version="1.1" id="Capa_1" xmlns="http://www.w3.org/2000/svg" xmlns:xlink="http://www.w3.org/1999/xlink" x="0px" y="0px"
	 viewBox="0 0 595.3 101.3" style="enable-background:new 0 0 595.3 101.3;" xml:space="preserve">
<style type="text/css">
	.st0{fill:#F5B2C5;}
</style>
<g>
	<g>
		<g>
			<path class="st0" d="M584.5,48.7c-6.3,0-12.6,0.6-18.8,0.6c-4.9,0-9.7-1.2-14.6-1.3c-5.6-0.1-10.6,0.3-16.2-0.7
				c-9.1-1.6-18.9-0.6-28.1-0.7c-10.8,0-21.7-0.1-32.5-0.1c-10,0-19.7,0.3-29.6,1.1c-9.4,0.7-18.8-0.9-28.1,0.6
				c-5.2,0.9-9.9,0.1-15.1-0.4c-5.5-0.5-11-0.2-16.5-0.3c-10.5,0-20.9,0-31.4-0.1c-9.5,0-19.6-1.2-29.1-0.1
				c-10.9,1.3-21.1,1.4-32.1,1.2c-5-0.1-10,0-15,0c-5.3,0-10.3,1.3-15.5,1.2c-10.1-0.1-20,0.2-30.1,0.9c-4.5,0.3-9.3,0.5-13.8-0.1
				c-4.3-0.6-8.2-1.5-12.6-1.4c-10.7,0.2-21.4,0-32.1-0.1c-4.5,0-9.2-0.3-13.7,0.3c-5.2,0.7-10.3,2.1-15.6,2.4
				c-10.4,0.6-20.6,1.1-31.1,1.1c-12.1,0.1-24.1,0.1-36.2-1.1c-8.9-0.9-18.6-0.4-27.5,0.4c-2.9,0.3-5.6,0.6-8.5,0.5
				c-4.8-0.1-9.3-0.6-14.1-1c-4.7-0.4-8.7,2.4-13.5,1.8c-4.5-0.6-7.8-0.9-12.4,0C-0.7,53.8,0,56.4,1.6,56c3-0.7,6-1.3,9-0.7
				c1.6,0.3,2.9,1,4.6,1.1c4.4,0.3,8.4-1.5,12.8-0.6c5.7,1.1,11.8,1.9,17.5,1.2c18.1-2.2,35.8,0.2,54,0.2c20,0,39.4-0.4,59.1-3.6
				c10.7-1.7,22-0.4,32.8-0.3c5.1,0.1,10.2-0.3,15.3-0.3c4.8,0,9.2,1.5,14,1.6c9.5,0.3,18.9-1.2,28.4-1.2c4.7,0,9.4,0.2,14.1,0.1
				c5.2-0.1,10.2-1.3,15.4-1.3c10.5,0,21,0.6,31.5,0.3c4.5-0.1,8.7-0.7,13.2-1.3c5.1-0.7,10-0.3,15.1-0.2
				c10.7,0.2,21.4,0.1,32.1,0.1c10.6,0,21.5-0.7,32,0.4c9.4,1,18.1-0.4,27.4-0.3c9.9,0.1,19.5-1.2,29.3-1.2
				c23.4,0,47.1-1.1,70.5,0.1c5,0.3,9.6,1.6,14.7,1.5c5.8-0.1,11.3,0.3,17.1,0.8c7.6,0.7,15.3-0.4,22.9-0.5
				C586.7,52.1,586.7,48.7,584.5,48.7L584.5,48.7z"/>
		</g>
	</g>
	<g>
		<g>
			<g>
				<path class="st0" d="M583.8,51.2c5.5,5.5,9.4,13.4,7.7,21.3c-1.1,5.5-5.5,8.2-10.9,7.4c-3.9-0.6-6.4-2.8-9.5-5
					c-3-2.1-5.8-3.8-8.2-6.6c-2.2-2.5-4.2-5.2-6.4-7.7c-3.2-3.8-7.9-6.3-10.7-10.1c-0.5-0.7-1.8-0.1-1.2,0.7
					c4.2,6.4,9.3,12.6,14.4,18.4c3.8,4.3,8,6.9,12.4,10.5c3.2,2.6,6.6,3.6,10.7,3.8c8,0.3,12.7-6.2,13.1-13.7
					c0.4-7.2-3.1-18.2-10.3-21.1C583.8,48.7,583,50.4,583.8,51.2L583.8,51.2z"/>
			</g>
		</g>
		<g>
			<g>
				<path class="st0" d="M585,51.7c6.9-2.9,10.4-13.5,10.2-20.3c-0.3-7.8-4.8-14.9-13.3-14.5c-3.7,0.2-7.1,1-10.1,3.3
					c-4.3,3.4-8.8,6.2-12.4,10.4c-5.2,6.2-10.5,12.5-14.8,19.2c-0.5,0.8,0.7,1.5,1.3,0.7c2.7-3.8,7.4-6.4,10.6-10.2
					c1.9-2.3,3.8-4.7,5.7-7c2.6-3.1,5.5-5.1,8.8-7.4c2.6-1.9,4.7-4,8-4.8c5.8-1.4,11.1,0.9,12.4,7.1c1.7,7.9-2.1,15.8-7.6,21.4
					C583,50.5,583.8,52.2,585,51.7L585,51.7z"/>
			</g>
		</g>
	</g>
	<g>
		<g>
			<g>
				<path class="st0" d="M531.3,50.5c3.3,3.8,6.3,8.5,6.1,13.7c-0.2,4.9-3.3,9.3-8.7,8.1c-2.6-0.6-4.4-2.1-6.5-3.6
					c-4.7-3.4-7.9-6.9-11.6-11.3c-2.4-2.7-6.5-4.9-8.5-7.7c-0.5-0.8-1.7-0.1-1.2,0.7c1.7,2.7,3.6,4.8,5.6,7.2
					c2.6,3.4,4.8,7.1,7.9,10.1c4.7,4.5,11.8,9.9,18.7,8.3c5.9-1.3,8-7.4,7.9-12.8c-0.1-5-3.2-13.1-8.4-14.9
					C531.2,48.1,530.5,49.7,531.3,50.5L531.3,50.5z"/>
			</g>
		</g>
		<g>
			<g>
				<path class="st0" d="M532.5,51c5.2-1.8,8.2-10,8.3-15c0.1-5.4-2-11.5-8-12.7c-7-1.5-14,3.9-18.7,8.5c-3.1,3-5.2,6.8-7.8,10.2
					c-1.9,2.5-3.9,4.5-5.5,7.3c-0.5,0.8,0.7,1.5,1.3,0.7c1.8-2.7,5.7-4.7,8-7.2c4-4.5,7.1-8.3,12-11.9c5.5-4.1,14.4-6.3,15.2,3.6
					c0.5,5.6-2.4,10.5-5.9,14.6C530.5,49.8,531.2,51.4,532.5,51L532.5,51z"/>
			</g>
		</g>
	</g>
	<g>
		<g>
			<g>
				<path class="st0" d="M483.2,50.7c3.2,4,8.4,12.3,2.8,16.9c-4.2,3.5-11.2-2.1-14.4-5c-2.3-2.2-4-5-6.2-7.2
					c-2.1-2.1-4.8-3.1-6.4-5.4c-0.5-0.8-1.7-0.1-1.2,0.7c2.8,4.7,6.3,9.5,10.1,13.5c4,4.3,9.8,9,16,8.3c5.5-0.6,7.9-5.9,7.8-10.9
					c-0.1-4.3-2.6-11.6-7.2-12.9C483.1,48.3,482.5,49.8,483.2,50.7L483.2,50.7z"/>
			</g>
		</g>
		<g>
			<g>
				<path class="st0" d="M484.4,51.2c4.6-1.4,7.1-8.7,7.1-13c0.1-5-2.3-10.3-7.9-10.8c-6.2-0.6-12,4.1-15.9,8.4
					c-3.7,4-7.2,8.9-10,13.6c-0.5,0.8,0.7,1.5,1.3,0.7c1.6-2.3,4.3-3.4,6.4-5.5c2.2-2.3,3.8-5.1,6.2-7.3c3.1-2.9,10.2-8.5,14.4-5.1
					c5.6,4.5,0.5,12.8-2.7,16.9C482.5,50.1,483.1,51.6,484.4,51.2L484.4,51.2z"/>
			</g>
		</g>
	</g>
</g>
</svg>
