<?xml version="1.0" encoding="utf-8"?>
<!-- Generator: Adobe Illustrator 25.0.0, SVG Export Plug-In . SVG Version: 6.00 Build 0)  -->
<svg version="1.1" id="Capa_1" xmlns="http://www.w3.org/2000/svg" xmlns:xlink="http://www.w3.org/1999/xlink" x="0px" y="0px"
	 viewBox="0 0 595.28 101.3" style="enable-background:new 0 0 595.28 101.3;" xml:space="preserve">
<style type="text/css">
	.st0{fill:#F5B2C5;}
</style>
<g>
	<g>
		<g>
			<path class="st0" d="M10.76,53.33c6.28,0,12.56-0.54,18.85-0.48c4.88,0.05,9.66,1.25,14.55,1.34c5.61,0.1,10.64-0.26,16.22,0.74
				c9.1,1.63,18.88,0.72,28.12,0.78c10.84,0.07,21.69,0.14,32.53,0.2c9.99,0.06,19.66-0.23,29.58-0.95
				c9.36-0.68,18.79,1.01,28.06-0.53c5.23-0.87,9.9-0.03,15.11,0.47c5.45,0.52,11.01,0.29,16.48,0.33
				c10.47,0.07,20.94,0.13,31.4,0.2c9.54,0.06,19.6,1.26,29.07,0.2c10.89-1.21,21.11-1.29,32.07-1.07
				c5.01,0.1,10.02,0.03,15.03,0.08c5.25,0.05,10.26-1.23,15.48-1.18c10.14,0.11,20-0.1,30.1-0.79c4.46-0.3,9.33-0.51,13.75,0.13
				c4.31,0.63,8.15,1.53,12.58,1.48c10.72-0.11,21.38,0.13,32.11,0.27c4.51,0.06,9.2,0.29,13.69-0.27
				c5.18-0.65,10.34-2.1,15.59-2.38c10.38-0.56,20.62-0.98,31.06-1c12.14-0.02,24.14-0.04,36.21,1.27
				c8.86,0.96,18.59,0.51,27.47-0.3c2.91-0.26,5.61-0.55,8.5-0.48c4.81,0.11,9.34,0.66,14.1,1.05c4.66,0.38,8.75-2.37,13.46-1.74
				c4.52,0.61,7.79,0.91,12.4,0.08c1.64-0.3,0.96-2.88-0.69-2.52c-3,0.65-5.99,1.29-9.05,0.65c-1.61-0.34-2.92-1.02-4.55-1.14
				c-4.35-0.33-8.4,1.45-12.82,0.59c-5.67-1.11-11.76-1.98-17.52-1.29c-18.14,2.17-35.84-0.34-53.98-0.43
				c-19.96-0.09-39.39,0.23-59.07,3.35c-10.67,1.69-22.03,0.35-32.77,0.16c-5.11-0.09-10.18,0.26-15.28,0.27
				c-4.77,0-9.24-1.52-13.97-1.68c-9.51-0.31-18.9,1.17-28.4,1.11c-4.69-0.03-9.4-0.25-14.08-0.17c-5.21,0.08-10.2,1.25-15.45,1.21
				c-10.5-0.08-21.04-0.64-31.53-0.47c-4.48,0.07-8.74,0.64-13.16,1.27c-5.07,0.72-10.04,0.26-15.13,0.13
				c-10.69-0.26-21.41-0.14-32.11-0.2c-10.57-0.06-21.5,0.65-32.01-0.53c-9.36-1.05-18.06,0.34-27.43,0.18
				c-9.86-0.16-19.53,1.09-29.33,1.04c-23.4-0.13-47.15,0.93-70.51-0.35c-5.04-0.28-9.58-1.68-14.71-1.59
				c-5.85,0.1-11.32-0.36-17.13-0.9c-7.57-0.71-15.29,0.38-22.88,0.45C8.56,49.94,8.56,53.33,10.76,53.33L10.76,53.33z"/>
		</g>
	</g>
	<g>
		<g>
			<g>
				<path class="st0" d="M11.46,50.84C6.01,45.29,2.13,37.41,3.8,29.48c1.16-5.49,5.55-8.17,10.89-7.39c3.94,0.58,6.37,2.78,9.46,5
					c2.96,2.12,5.8,3.83,8.22,6.61c2.19,2.52,4.21,5.18,6.36,7.72c3.19,3.78,7.88,6.36,10.62,10.15c0.54,0.74,1.77,0.07,1.25-0.73
					c-4.16-6.44-9.26-12.6-14.31-18.42c-3.78-4.36-7.94-6.94-12.38-10.54c-3.19-2.58-6.56-3.63-10.71-3.83
					C5.25,17.67,0.45,24.18,0.05,31.67c-0.38,7.15,2.99,18.17,10.24,21.18C11.45,53.34,12.23,51.63,11.46,50.84L11.46,50.84z"/>
			</g>
		</g>
		<g>
			<g>
				<path class="st0" d="M10.29,50.27C3.4,53.13-0.2,63.69,0.01,70.55c0.24,7.77,4.75,14.93,13.2,14.52
					c3.72-0.18,7.14-1.02,10.1-3.28c4.36-3.35,8.82-6.13,12.41-10.35c5.21-6.13,10.56-12.45,14.89-19.16
					c0.51-0.8-0.72-1.47-1.25-0.73c-2.75,3.8-7.42,6.35-10.62,10.15c-1.95,2.31-3.8,4.69-5.77,6.99c-2.62,3.07-5.56,5.03-8.81,7.35
					c-2.6,1.85-4.75,3.99-7.98,4.78C10.4,82.24,5.11,79.87,3.8,73.64c-1.67-7.93,2.21-15.81,7.66-21.37
					C12.23,51.49,11.46,49.78,10.29,50.27L10.29,50.27z"/>
			</g>
		</g>
	</g>
	<g>
		<g>
			<g>
				<path class="st0" d="M63.99,51.72c-3.31-3.79-6.27-8.5-6.02-13.74c0.24-4.92,3.32-9.26,8.72-8.08c2.62,0.57,4.43,2.07,6.52,3.61
					c4.66,3.43,7.83,6.96,11.6,11.31c2.38,2.75,6.49,4.91,8.43,7.73c0.52,0.76,1.74,0.08,1.25-0.73c-1.65-2.74-3.62-4.8-5.53-7.27
					c-2.62-3.39-4.76-7.11-7.86-10.12c-4.66-4.52-11.72-9.93-18.7-8.42c-5.93,1.28-8.07,7.37-7.92,12.78
					c0.13,4.99,3.1,13.12,8.33,14.94C64.04,54.15,64.72,52.55,63.99,51.72L63.99,51.72z"/>
			</g>
		</g>
		<g>
			<g>
				<path class="st0" d="M62.82,51.2c-5.23,1.82-8.2,9.94-8.33,14.94c-0.14,5.4,2,11.5,7.92,12.78c7.01,1.52,14.03-3.89,18.7-8.42
					c3.1-3.01,5.24-6.73,7.86-10.12c1.91-2.48,3.89-4.53,5.53-7.27c0.49-0.81-0.73-1.49-1.25-0.73c-1.83,2.67-5.7,4.65-7.99,7.2
					c-3.99,4.46-7.16,8.25-12.04,11.84c-5.54,4.07-14.44,6.23-15.23-3.66c-0.44-5.57,2.46-10.5,6-14.55
					C64.72,52.38,64.04,50.77,62.82,51.2L62.82,51.2z"/>
			</g>
		</g>
	</g>
	<g>
		<g>
			<g>
				<path class="st0" d="M112.06,51.7c-3.19-4.05-8.31-12.34-2.76-16.87c4.26-3.48,11.24,2.13,14.4,5.09
					c2.31,2.17,3.95,4.98,6.18,7.23c2.07,2.1,4.81,3.15,6.4,5.44c0.53,0.76,1.73,0.08,1.25-0.73c-2.79-4.71-6.31-9.55-10.04-13.57
					c-3.97-4.28-9.76-8.99-15.97-8.36c-5.5,0.56-7.92,5.85-7.83,10.83c0.08,4.29,2.55,11.6,7.2,12.94
					C112.15,54.08,112.76,52.58,112.06,51.7L112.06,51.7z"/>
			</g>
		</g>
		<g>
			<g>
				<path class="st0" d="M110.89,51.22c-4.62,1.34-7.13,8.68-7.2,12.94c-0.08,4.98,2.3,10.28,7.83,10.83
					c6.24,0.63,11.98-4.07,15.97-8.36c3.73-4.02,7.24-8.85,10.04-13.57c0.48-0.81-0.73-1.49-1.25-0.73
					c-1.59,2.29-4.33,3.34-6.4,5.44c-2.22,2.25-3.86,5.07-6.18,7.23c-3.12,2.92-10.26,8.47-14.4,5.09
					c-5.55-4.53-0.42-12.82,2.76-16.87C112.75,52.35,112.16,50.85,110.89,51.22L110.89,51.22z"/>
			</g>
		</g>
	</g>
</g>
</svg>
